<?xml version="1.0" encoding="utf-8"?>
<!-- Generator: Adobe Illustrator 21.0.0, SVG Export Plug-In . SVG Version: 6.00 Build 0)  -->
<svg version="1.1" xmlns="http://www.w3.org/2000/svg" xmlns:xlink="http://www.w3.org/1999/xlink" x="0px" y="0px"
	 viewBox="6.2 11.3 28.9 364.3" enable-background="new 6.2 11.3 28.9 364.3" xml:space="preserve">
<g id="Pretty_Background" display="none">
	<path vector-effect="non-scaling-stroke" display="inline" fill="#CCCCCC" d="M35.1,11.3H6.2l0,0v364.3l0,0h28.9l0,0V11.3
		L35.1,11.3z"/>
</g>
<g id="Print_Layer">
	<g>
		<path d="M18.2,30h-1.5l-0.6,4.5c0,0.2-0.2,0.3-0.3,0.3c-0.2,0-0.3-0.2-0.3-0.3l0.5-4.4h-1.5c-0.2,0-0.3-0.1-0.3-0.3
			c0-0.2,0.1-0.3,0.3-0.3h3.6c0.2,0,0.3,0.1,0.3,0.3C18.5,29.9,18.4,30,18.2,30z"/>
		<path d="M21.1,32.2l1.3,2.2c0.1,0.1,0,0.3-0.1,0.4s-0.3,0-0.4-0.1l-1.2-2l-1.8,2.1c-0.1,0.1-0.3,0.1-0.4,0s-0.1-0.3,0-0.4l1.9-2.2
			L19,29.9c-0.1-0.1,0-0.3,0.1-0.4s0.3,0,0.4,0.1l1.2,2l1.8-2.1c0.1-0.1,0.3-0.1,0.4,0s0.1,0.3,0,0.4L21.1,32.2z"/>
		<path d="M26.5,34.6c0,0.2-0.2,0.3-0.3,0.3c-0.2,0-0.3-0.2-0.3-0.3l0.3-2c0.1-0.6-0.2-1-0.8-1c-0.6,0-1.2,0.5-1.2,0.5l-0.3,2.6
			c0,0.2-0.2,0.3-0.3,0.3s-0.3-0.2-0.3-0.3l0.4-3.3c0-0.2,0.2-0.3,0.3-0.3c0.1,0,0.3,0.1,0.3,0.3c0.3-0.2,0.7-0.3,1.1-0.3
			c1,0,1.5,0.7,1.4,1.6L26.5,34.6z"/>
	</g>
	<g>
		<path d="M16.9,355.9c-0.3,0-0.6-0.1-0.9-0.2c0,0.1-0.1,0.1-0.2,0.1c-0.2,0-0.3-0.1-0.3-0.3V351c0-0.2,0.1-0.3,0.3-0.3
			s0.3,0.1,0.3,0.3v1.3c0.2-0.1,0.6-0.2,0.8-0.2c1,0,1.7,0.8,1.7,1.9C18.6,355.1,17.9,355.9,16.9,355.9z M16.9,352.7
			c-0.2,0-0.6,0.1-0.8,0.2v2.2c0.2,0.1,0.6,0.2,0.8,0.2c0.7,0,1.2-0.5,1.2-1.3C18.1,353.2,17.6,352.7,16.9,352.7z"/>
		<path d="M20.9,355.9c-0.3,0-0.6-0.1-0.8-0.2v1.2c0,0.2-0.1,0.3-0.3,0.3c-0.2,0-0.3-0.1-0.3-0.3v-4.5c0-0.2,0.1-0.3,0.3-0.3
			c0.1,0,0.2,0.1,0.2,0.1c0.2-0.1,0.6-0.2,0.9-0.2c1,0,1.7,0.8,1.7,1.9C22.6,355.1,21.9,355.9,20.9,355.9z M20.9,352.7
			c-0.2,0-0.6,0.1-0.8,0.2v2.2c0.2,0.1,0.6,0.2,0.8,0.2c0.7,0,1.2-0.5,1.2-1.3C22,353.2,21.6,352.7,20.9,352.7z"/>
		<path d="M26,355.7c-0.3,0.1-0.5,0.1-0.8,0.1c-1.1,0-1.8-0.8-1.8-1.9c0-1.1,0.7-1.9,1.8-1.9c0.3,0,0.5,0,0.8,0.1
			c0.2,0.1,0.2,0.2,0.2,0.4c0,0.1-0.2,0.2-0.3,0.2c-0.2-0.1-0.4-0.1-0.6-0.1c-0.8,0-1.2,0.6-1.2,1.3c0,0.8,0.5,1.3,1.2,1.3
			c0.2,0,0.4-0.1,0.6-0.1c0.1,0,0.3,0.1,0.3,0.2C26.2,355.5,26.1,355.7,26,355.7z"/>
	</g>
</g>
<g id="Cut_Lines" xmlns:fpd="http://www.schaeffer-ag.de">
	<desc>Created with the Front Panel Designer by the export of the file &apos;TO-PANEL.fpd&apos;.</desc>
	
		<path vector-effect="non-scaling-stroke" fill="#FFFFFF" stroke="#000000" stroke-width="0.2835" stroke-linecap="round" stroke-linejoin="round" d="
		M8.5,17.6c0.4-1.5,1.7-2.5,3.3-2.5h9.6c1.5,0,2.9,1,3.3,2.5c0.4,1.4,0.4,2.9,0,4.3c-0.4,1.5-1.7,2.5-3.3,2.5h-9.6
		c-1.5,0-2.9-1-3.3-2.5C8.1,20.5,8.1,19,8.5,17.6z"/>
	
		<path vector-effect="non-scaling-stroke" fill="#FFFFFF" stroke="#000000" stroke-width="0.2835" stroke-linecap="round" stroke-linejoin="round" d="
		M8.5,364.9c0.4-1.5,1.7-2.5,3.3-2.5h9.6c1.5,0,2.9,1,3.3,2.5c0.4,1.4,0.4,2.9,0,4.3c-0.4,1.5-1.7,2.5-3.3,2.5h-9.6
		c-1.5,0-2.9-1-3.3-2.5C8.1,367.7,8.1,366.3,8.5,364.9z"/>
	
		<path vector-effect="non-scaling-stroke" fill="none" stroke="#000000" stroke-width="0.2835" stroke-linecap="round" stroke-linejoin="round" d="
		M35.1,11.3H6.2l0,0v364.3l0,0h28.9l0,0V11.3L35.1,11.3"/>
	
		<circle display="none" fill="#FFFFFF" stroke="#000000" stroke-width="0.2835" stroke-linecap="round" stroke-linejoin="round" cx="12.7" cy="19.8" r="4.5"/>
</g>
<g id="Jacks">
	<g id="Numbers">
		<g>
			<path d="M31,49c-1,0-1.8-0.8-1.8-1.9c0-1.1,0.8-1.9,1.8-1.9s1.8,0.8,1.8,1.9C32.8,48.2,32,49,31,49z M31,45.9
				c-0.7,0-1.2,0.6-1.2,1.3c0,0.8,0.5,1.3,1.2,1.3s1.2-0.6,1.2-1.3C32.2,46.4,31.7,45.9,31,45.9z"/>
		</g>
		<g>
			<path d="M31,341.6c-1,0-1.8-0.8-1.8-1.9c0-1.1,0.8-1.9,1.8-1.9c1,0,1.8,0.8,1.8,1.9C32.8,340.8,32,341.6,31,341.6z M31,338.5
				c-0.7,0-1.2,0.6-1.2,1.3c0,0.8,0.5,1.3,1.2,1.3s1.2-0.6,1.2-1.3C32.2,339,31.7,338.5,31,338.5z"/>
		</g>
	</g>
	<g>
		
			<circle vector-effect="non-scaling-stroke" fill="#FFFFFF" stroke="#000000" stroke-width="0.2835" stroke-linecap="round" stroke-linejoin="round" cx="20.7" cy="193.5" r="9"/>
		
			<circle vector-effect="non-scaling-stroke" fill="#FFFFFF" stroke="#000000" stroke-width="0.2835" stroke-linecap="round" stroke-linejoin="round" cx="20.7" cy="228.8" r="9"/>
		
			<circle vector-effect="non-scaling-stroke" fill="#FFFFFF" stroke="#000000" stroke-width="0.2835" stroke-linecap="round" stroke-linejoin="round" cx="20.7" cy="295.7" r="9"/>
		
			<circle vector-effect="non-scaling-stroke" fill="#FFFFFF" stroke="#000000" stroke-width="0.2835" stroke-linecap="round" stroke-linejoin="round" cx="20.7" cy="327.5" r="9"/>
		
			<circle vector-effect="non-scaling-stroke" fill="#FFFFFF" stroke="#000000" stroke-width="0.2835" stroke-linecap="round" stroke-linejoin="round" cx="20.7" cy="59.3" r="9"/>
		
			<circle vector-effect="non-scaling-stroke" fill="#FFFFFF" stroke="#000000" stroke-width="0.2835" stroke-linecap="round" stroke-linejoin="round" cx="20.7" cy="91.3" r="9"/>
		
			<circle vector-effect="non-scaling-stroke" fill="#FFFFFF" stroke="#000000" stroke-width="0.2835" stroke-linecap="round" stroke-linejoin="round" cx="20.7" cy="126.5" r="9"/>
		
			<circle vector-effect="non-scaling-stroke" fill="#FFFFFF" stroke="#000000" stroke-width="0.2835" stroke-linecap="round" stroke-linejoin="round" cx="20.7" cy="158.2" r="9"/>
		
			<circle vector-effect="non-scaling-stroke" fill="#FFFFFF" stroke="#000000" stroke-width="0.2835" stroke-linecap="round" stroke-linejoin="round" cx="20.7" cy="260.6" r="9"/>
	</g>
</g>
</svg>
