<?xml version="1.0" encoding="utf-8"?>
<!-- Generator: Adobe Illustrator 21.0.0, SVG Export Plug-In . SVG Version: 6.00 Build 0)  -->
<svg version="1.1" id="Layer_1" xmlns="http://www.w3.org/2000/svg" xmlns:xlink="http://www.w3.org/1999/xlink" x="0px" y="0px"
	 viewBox="0 0 184.3 425.2" style="enable-background:new 0 0 184.3 425.2;" xml:space="preserve">
<style type="text/css">
	.st0{fill:#39D437;}
	.st1{fill:none;stroke:#FF0000;stroke-width:0.7087;}
	.st2{enable-background:new    ;}
	.st3{fill:#002CAA;}
</style>
<title>/Users/brendoncassidy/development/sdiy/eurorack/TXn/board/gerbers/TXn_v1.2_bottomonly.brd</title>
<desc>generated by eagle2svg 1.4,</desc>
<g>
	<rect x="98.8" y="147.5" class="st0" width="3.1" height="2.8"/>
	<rect x="93.9" y="147.5" class="st0" width="3.1" height="2.8"/>
	<rect x="98.8" y="285.3" class="st0" width="3.1" height="2.8"/>
	<rect x="93.9" y="285.3" class="st0" width="3.1" height="2.8"/>
	<rect x="89.1" y="148.3" class="st0" width="2.8" height="3.1"/>
	<rect x="89.1" y="143.5" class="st0" width="2.8" height="3.1"/>
	<rect x="102.3" y="181.9" class="st0" width="2.8" height="3.1"/>
	<rect x="102.3" y="177.1" class="st0" width="2.8" height="3.1"/>
	<rect x="79.1" y="79.3" class="st0" width="6.2" height="4"/>
	<rect x="88.1" y="79.3" class="st0" width="6.2" height="4"/>
	<rect x="88.3" y="92.2" class="st0" width="6.2" height="4"/>
	<rect x="79.2" y="92.2" class="st0" width="6.2" height="4"/>
	<rect x="89.1" y="286.1" class="st0" width="2.8" height="3.1"/>
	<rect x="89.1" y="281.3" class="st0" width="2.8" height="3.1"/>
	<rect x="102.4" y="317.6" class="st0" width="2.8" height="3.1"/>
	<rect x="102.4" y="312.8" class="st0" width="2.8" height="3.1"/>
	<rect x="90" y="67.6" class="st0" width="4" height="4"/>
	<rect x="79.2" y="67.6" class="st0" width="4" height="4"/>
	<rect x="78.9" y="108.1" class="st0" width="4" height="4"/>
	<rect x="89.7" y="108.1" class="st0" width="4" height="4"/>
	<rect x="90.5" y="169.3" class="st0" width="1.7" height="6.2"/>
	<rect x="94.1" y="169.3" class="st0" width="1.7" height="6.2"/>
	<rect x="97.7" y="169.3" class="st0" width="1.7" height="6.2"/>
	<rect x="101.3" y="169.3" class="st0" width="1.7" height="6.2"/>
	<rect x="101.3" y="154.6" class="st0" width="1.7" height="6.2"/>
	<rect x="97.7" y="154.6" class="st0" width="1.7" height="6.2"/>
	<rect x="94.1" y="154.6" class="st0" width="1.7" height="6.2"/>
	<rect x="90.5" y="154.6" class="st0" width="1.7" height="6.2"/>
	<rect x="90.5" y="305.4" class="st0" width="1.7" height="6.2"/>
	<rect x="94.1" y="305.4" class="st0" width="1.7" height="6.2"/>
	<rect x="97.7" y="305.4" class="st0" width="1.7" height="6.2"/>
	<rect x="101.3" y="305.4" class="st0" width="1.7" height="6.2"/>
	<rect x="101.3" y="290.6" class="st0" width="1.7" height="6.2"/>
	<rect x="97.7" y="290.6" class="st0" width="1.7" height="6.2"/>
	<rect x="94.1" y="290.6" class="st0" width="1.7" height="6.2"/>
	<rect x="90.5" y="290.6" class="st0" width="1.7" height="6.2"/>
	<rect x="80" y="72.5" class="st0" width="2.4" height="2"/>
	<rect x="84.5" y="72.5" class="st0" width="2.4" height="2"/>
	<rect x="91" y="104.6" class="st0" width="2" height="2.4"/>
	<rect x="91" y="100.1" class="st0" width="2" height="2.4"/>
	<rect x="87.1" y="100.9" class="st0" width="2.8" height="5.1"/>
	<rect x="79.2" y="100.9" class="st0" width="2.8" height="5.1"/>
	<rect x="85.6" y="128.4" class="st0" width="2.8" height="3.1"/>
	<rect x="90.4" y="128.4" class="st0" width="2.8" height="3.1"/>
	<rect x="85.6" y="134.3" class="st0" width="2.8" height="3.1"/>
	<rect x="90.4" y="134.3" class="st0" width="2.8" height="3.1"/>
	<rect x="79.3" y="144.5" class="st0" width="2.8" height="3.1"/>
	<rect x="84.2" y="144.5" class="st0" width="2.8" height="3.1"/>
	<rect x="79.3" y="150.5" class="st0" width="2.8" height="3.1"/>
	<rect x="84.2" y="150.5" class="st0" width="2.8" height="3.1"/>
	<rect x="79.3" y="177.4" class="st0" width="2.8" height="3.1"/>
	<rect x="84.2" y="177.4" class="st0" width="2.8" height="3.1"/>
	<rect x="79.3" y="183.4" class="st0" width="2.8" height="3.1"/>
	<rect x="84.2" y="183.4" class="st0" width="2.8" height="3.1"/>
	<rect x="79.3" y="212" class="st0" width="2.8" height="3.1"/>
	<rect x="84.2" y="212" class="st0" width="2.8" height="3.1"/>
	<rect x="79.3" y="217.9" class="st0" width="2.8" height="3.1"/>
	<rect x="84.2" y="217.9" class="st0" width="2.8" height="3.1"/>
	<rect x="79.3" y="246.3" class="st0" width="2.8" height="3.1"/>
	<rect x="84.2" y="246.3" class="st0" width="2.8" height="3.1"/>
	<rect x="79.3" y="252.2" class="st0" width="2.8" height="3.1"/>
	<rect x="84.2" y="252.2" class="st0" width="2.8" height="3.1"/>
	<rect x="79.3" y="280.9" class="st0" width="2.8" height="3.1"/>
	<rect x="84.2" y="280.9" class="st0" width="2.8" height="3.1"/>
	<rect x="79.3" y="286.8" class="st0" width="2.8" height="3.1"/>
	<rect x="84.2" y="286.8" class="st0" width="2.8" height="3.1"/>
	<rect x="79.3" y="312.9" class="st0" width="2.8" height="3.1"/>
	<rect x="84.2" y="312.9" class="st0" width="2.8" height="3.1"/>
	<rect x="79.3" y="318.8" class="st0" width="2.8" height="3.1"/>
	<rect x="84.2" y="318.8" class="st0" width="2.8" height="3.1"/>
	<rect x="90.4" y="181.4" class="st0" width="3.1" height="2.8"/>
	<rect x="90.4" y="176.6" class="st0" width="3.1" height="2.8"/>
	<rect x="90.4" y="185.3" class="st0" width="3.1" height="2.8"/>
	<rect x="90.4" y="190.2" class="st0" width="3.1" height="2.8"/>
	<rect x="101.7" y="137.1" class="st0" width="3.1" height="2.8"/>
	<rect x="101.7" y="142" class="st0" width="3.1" height="2.8"/>
	<rect x="90.4" y="120.4" class="st0" width="2.8" height="3.1"/>
	<rect x="85.6" y="120.4" class="st0" width="2.8" height="3.1"/>
	<rect x="89" y="317.4" class="st0" width="3.1" height="2.8"/>
	<rect x="89" y="312.6" class="st0" width="3.1" height="2.8"/>
	<rect x="94.9" y="317.4" class="st0" width="3.1" height="2.8"/>
	<rect x="94.9" y="322.3" class="st0" width="3.1" height="2.8"/>
	<rect x="94.1" y="279.2" class="st0" width="2.8" height="3.1"/>
	<rect x="98.9" y="279.2" class="st0" width="2.8" height="3.1"/>
	<rect x="79.6" y="351.4" class="st0" width="3.1" height="2.8"/>
	<rect x="79.6" y="346.6" class="st0" width="3.1" height="2.8"/>
	<rect x="95.8" y="134.6" class="st0" width="3.1" height="2.8"/>
	<rect x="95.8" y="129.8" class="st0" width="3.1" height="2.8"/>
	<rect x="85.6" y="351.4" class="st0" width="3.1" height="2.8"/>
	<rect x="85.6" y="346.6" class="st0" width="3.1" height="2.8"/>
</g>
<rect class="st1" width="184.3" height="425.2"/>
<g class="st2">
	<path class="st3" d="M15.7,405.8v3.9h11.7c0.7,0,1.3,0.6,1.3,1.3s-0.6,1.3-1.3,1.3H15.7v3.9c0,0.7-0.6,1.3-1.3,1.3
		s-1.3-0.6-1.3-1.3v-10.3c0-0.7,0.6-1.3,1.3-1.3S15.7,405.1,15.7,405.8z"/>
	<path class="st3" d="M26.6,391.3c0.5-0.4,1.3-0.3,1.8,0.3c0.4,0.5,0.3,1.3-0.2,1.8l-5.1,3.9l5.1,3.8c0.6,0.4,0.7,1.2,0.3,1.8
		c-0.4,0.6-1.2,0.7-1.8,0.3l-5.7-4.3l-5.7,4.3c-0.5,0.4-1.3,0.3-1.8-0.3c-0.4-0.5-0.3-1.3,0.2-1.8l5.1-3.9l-5.1-3.8
		c-0.6-0.4-0.7-1.2-0.3-1.8c0.4-0.6,1.2-0.7,1.8-0.3l5.7,4.3L26.6,391.3z"/>
	<path class="st3" d="M27.4,379c0.7,0,1.3,0.6,1.3,1.3c0,0.7-0.6,1.3-1.3,1.3h-5.8c-1.5,0-2,0.5-2,2c0,1.3,0.6,2.3,1.1,2.8h6.7
		c0.7,0,1.3,0.6,1.3,1.2s-0.6,1.3-1.3,1.3h-8.9c-0.7,0-1.3-0.6-1.3-1.3c0-0.4,0.2-0.8,0.6-1.1c-0.4-0.8-0.8-1.8-0.8-2.9
		c0-2.9,1.6-4.6,4.5-4.6H27.4z"/>
	<path class="st3" d="M27.9,365.2c0.4,0.2,0.7,0.7,0.7,1.2c0,0.5-0.3,0.9-0.7,1.2l-8.9,4c-0.6,0.3-1.4,0-1.7-0.6
		c-0.3-0.6,0-1.4,0.6-1.7l6.3-2.8l-6.3-2.8c-0.6-0.3-0.9-1-0.6-1.7c0.3-0.6,1-0.9,1.7-0.6L27.9,365.2z"/>
	<path class="st3" d="M28.7,351.3v6.9c0,0.7-0.6,1.3-1.3,1.3s-1.3-0.6-1.3-1.3V356h-7l0.3,2.1c0.1,0.7-0.4,1.3-1.1,1.4
		c-0.7,0.1-1.3-0.4-1.4-1.1l-0.5-3.5c-0.1-0.4,0.1-0.7,0.3-1c0.2-0.3,0.6-0.4,1-0.4h8.5v-2.2c0-0.7,0.6-1.3,1.3-1.3
		S28.7,350.6,28.7,351.3z"/>
	<path class="st3" d="M28.3,345.8c0.6,0.5,0.6,1.4,0.1,2c-0.5,0.6-1.4,0.6-2,0.1l-0.6-0.6c-0.6-0.5-0.7-1.4-0.1-2
		c0.5-0.6,1.4-0.7,2-0.1L28.3,345.8z"/>
	<path class="st3" d="M28.7,335v6.3c0,0.7-0.6,1.3-1.2,1.3c-1.2,0-4.1,0-5.3-2.8c-0.3-0.7-0.5-1.3-0.7-1.9c-0.6-1.6-0.6-1.6-1.3-1.6
		c-0.9,0-1.3,0.7-1.3,2c0,0.8,0.3,2.2,0.4,2.6c0.2,0.7-0.2,1.4-0.8,1.6c-0.7,0.2-1.4-0.2-1.6-0.8c-0.2-0.7-0.5-2.3-0.5-3.4
		c0-2.8,1.5-4.5,3.9-4.5c2.5,0,3.1,1.7,3.7,3.3c0.2,0.5,0.4,1.1,0.6,1.6c0.4,0.8,0.9,1.1,1.8,1.2V335c0-0.7,0.6-1.2,1.3-1.2
		C28.1,333.7,28.7,334.3,28.7,335z"/>
</g>
</svg>
