<?xml version="1.0" encoding="utf-8"?>
<!-- Generator: Adobe Illustrator 22.1.0, SVG Export Plug-In . SVG Version: 6.00 Build 0)  -->
<svg version="1.1" id="Layer_1" xmlns="http://www.w3.org/2000/svg" xmlns:xlink="http://www.w3.org/1999/xlink" x="0px" y="0px"
	 viewBox="0 0 396.9 283.5" style="enable-background:new 0 0 396.9 283.5;" xml:space="preserve">
<style type="text/css">
	.st0{fill:none;stroke:#000000;stroke-miterlimit:10;}
	.st1{fill:#B70000;}
</style>
<g id="Layer_3_1_">
	<g id="Layer_2_3_">
		<g>
			<rect x="258.9" y="165.2" class="st0" width="4.6" height="31.7"/>
			<rect x="254.7" y="205.5" class="st0" width="27.5" height="4.6"/>
			<rect x="250" y="148.4" class="st0" width="36.9" height="66.9"/>
			<rect x="263.6" y="182.7" class="st0" width="5" height="12.8"/>
		</g>
		<g>
			<rect x="303.6" y="205.5" class="st0" width="27.5" height="4.6"/>
			<rect x="298.9" y="148.5" class="st0" width="36.9" height="66.9"/>
			<rect x="322.4" y="171.4" class="st0" width="4.6" height="25.4"/>
			<rect x="317.4" y="188.3" class="st0" width="5" height="7.1"/>
			<rect x="305.4" y="176.7" class="st0" width="17" height="17.9"/>
		</g>
	</g>
	<g>
		<path class="st1" d="M257.6,152.2h-1.7v5.2c0,0.3-0.3,0.6-0.6,0.6s-0.6-0.3-0.6-0.6v-5.2H253c-0.3,0-0.6-0.3-0.6-0.6
			s0.3-0.6,0.6-0.6h4.6c0.3,0,0.6,0.3,0.6,0.6S257.9,152.2,257.6,152.2z"/>
		<path class="st1" d="M264.1,157.1c0.2,0.2,0.1,0.6-0.1,0.8s-0.6,0.1-0.8-0.1l-1.7-2.3l-1.7,2.3c-0.2,0.3-0.5,0.3-0.8,0.1
			c-0.2-0.2-0.3-0.5-0.1-0.8l1.9-2.5l-1.9-2.6c-0.2-0.2-0.1-0.6,0.1-0.8s0.6-0.1,0.8,0.1l1.7,2.3l1.7-2.3c0.2-0.2,0.5-0.3,0.8-0.1
			c0.2,0.2,0.3,0.5,0.1,0.8l-1.9,2.6L264.1,157.1z"/>
		<path class="st1" d="M269.6,157.4c0,0.3-0.3,0.6-0.6,0.6c-0.3,0-0.6-0.3-0.6-0.6v-2.6c0-0.6-0.2-0.9-0.9-0.9c-0.6,0-1,0.3-1.2,0.5
			v3c0,0.3-0.2,0.6-0.6,0.6s-0.6-0.3-0.6-0.6v-4c0-0.3,0.3-0.6,0.6-0.6c0.2,0,0.4,0.1,0.5,0.3c0.4-0.2,0.8-0.3,1.3-0.3
			c1.3,0,2,0.7,2,2v2.6H269.6z"/>
	</g>
	<g>
		<path class="st1" d="M305.8,152.2h-1.7v5.2c0,0.3-0.3,0.6-0.6,0.6c-0.3,0-0.6-0.3-0.6-0.6v-5.2h-1.7c-0.3,0-0.6-0.3-0.6-0.6
			s0.3-0.6,0.6-0.6h4.6c0.3,0,0.6,0.3,0.6,0.6C306.4,151.9,306.1,152.2,305.8,152.2z"/>
		<path class="st1" d="M312.2,157.1c0.2,0.2,0.1,0.6-0.1,0.8s-0.6,0.1-0.8-0.1l-1.7-2.3l-1.7,2.3c-0.2,0.3-0.5,0.3-0.8,0.1
			c-0.2-0.2-0.3-0.5-0.1-0.8l1.9-2.5L307,152c-0.2-0.2-0.1-0.6,0.1-0.8s0.6-0.1,0.8,0.1l1.7,2.3l1.7-2.3c0.2-0.2,0.5-0.3,0.8-0.1
			c0.2,0.2,0.3,0.5,0.1,0.8l-1.9,2.6L312.2,157.1z"/>
		<path class="st1" d="M317.7,157.4c0,0.3-0.3,0.6-0.6,0.6c-0.3,0-0.6-0.3-0.6-0.6v-2.6c0-0.6-0.2-0.9-0.9-0.9c-0.6,0-1,0.3-1.2,0.5
			v3c0,0.3-0.2,0.6-0.6,0.6s-0.6-0.3-0.6-0.6v-4c0-0.3,0.3-0.6,0.6-0.6c0.2,0,0.4,0.1,0.5,0.3c0.4-0.2,0.8-0.3,1.3-0.3
			c1.3,0,2,0.7,2,2v2.6H317.7z"/>
	</g>
</g>
</svg>
