<?xml version="1.0" encoding="utf-8"?>
<!-- Generator: Adobe Illustrator 23.0.1, SVG Export Plug-In . SVG Version: 6.00 Build 0)  -->
<svg version="1.1" id="Layer_1" xmlns="http://www.w3.org/2000/svg" xmlns:xlink="http://www.w3.org/1999/xlink" x="0px" y="0px"
	 viewBox="0 0 253.51 445.74" style="enable-background:new 0 0 253.51 445.74;" xml:space="preserve">
<style type="text/css">
	.st0{fill:none;stroke:#BCBEC0;stroke-miterlimit:10;}
	.st1{fill:#E6E7E8;stroke:#808285;stroke-miterlimit:10;}
	.st2{fill:none;stroke:#F7941D;stroke-miterlimit:10;}
	.st3{fill:none;stroke:#1B75BC;stroke-miterlimit:10;}
	.st4{fill:#FBB040;stroke:#F7941D;stroke-miterlimit:10;}
	.st5{fill:#27AAE1;stroke:#1B75BC;stroke-miterlimit:10;}
	.st6{fill:#F7941D;}
	.st7{fill:#1B75BC;}
	.st8{fill:#808285;}
	.st9{fill:#58595B;}
</style>
<line class="st0" x1="139.12" y1="94.8" x2="30.2" y2="94.8"/>
<line class="st0" x1="139.12" y1="136.44" x2="42.59" y2="136.44"/>
<line class="st0" x1="138.85" y1="219.72" x2="67.36" y2="219.72"/>
<line class="st0" x1="139.12" y1="178.08" x2="54.97" y2="178.08"/>
<line class="st0" x1="139.12" y1="261.35" x2="54.97" y2="261.35"/>
<line class="st0" x1="139.12" y1="302.99" x2="42.59" y2="302.99"/>
<line class="st0" x1="139.12" y1="344.63" x2="30.2" y2="344.63"/>
<circle class="st1" cx="139.12" cy="94.8" r="15"/>
<circle class="st1" cx="139.12" cy="136.44" r="15"/>
<circle class="st1" cx="139.12" cy="178.08" r="15"/>
<circle class="st1" cx="139.12" cy="219.72" r="15"/>
<circle class="st1" cx="139.12" cy="261.35" r="15"/>
<circle class="st1" cx="139.12" cy="302.99" r="15"/>
<circle class="st1" cx="139.12" cy="344.63" r="15"/>
<line class="st2" x1="30.2" y1="344.63" x2="104.52" y2="94.8"/>
<line class="st3" x1="104.52" y1="344.63" x2="30.2" y2="94.8"/>
<line class="st2" x1="104.52" y1="94.8" x2="104.52" y2="53.16"/>
<line class="st3" x1="104.52" y1="344.63" x2="104.52" y2="386.27"/>
<line class="st2" x1="104.52" y1="53.16" x2="236.28" y2="53.16"/>
<line class="st3" x1="104.52" y1="386.27" x2="236.28" y2="386.27"/>
<circle class="st4" cx="139.12" cy="53.16" r="15"/>
<circle class="st5" cx="139.12" cy="386.27" r="15"/>
<g>
	<path class="st6" d="M205.73,45.62c0,2.15-1.51,3.11-3,3.11c-1.66,0-2.93-1.14-2.93-3.01c0-1.92,1.26-3.09,3.02-3.09
		C204.57,42.62,205.73,43.85,205.73,45.62z M201.33,45.68c0,1.13,0.55,1.98,1.45,1.98c0.84,0,1.43-0.83,1.43-2
		c0-0.91-0.41-1.96-1.42-1.96C201.75,43.7,201.33,44.71,201.33,45.68z"/>
	<path class="st6" d="M212.18,46.84c0,0.7,0.02,1.27,0.05,1.75h-1.3l-0.07-0.89h-0.02c-0.25,0.42-0.83,1.02-1.87,1.02
		c-1.07,0-2.04-0.64-2.04-2.54v-3.43h1.48v3.18c0,0.97,0.31,1.6,1.09,1.6c0.59,0,0.97-0.42,1.13-0.79c0.05-0.13,0.08-0.29,0.08-0.46
		v-3.53h1.48V46.84z"/>
	<path class="st6" d="M215.47,41.09v1.67h1.4v1.1h-1.4v2.58c0,0.71,0.19,1.08,0.76,1.08c0.25,0,0.44-0.04,0.58-0.07l0.02,1.13
		c-0.22,0.08-0.6,0.14-1.07,0.14c-0.54,0-1-0.18-1.27-0.48c-0.31-0.34-0.46-0.86-0.46-1.63v-2.75h-0.84v-1.1h0.84v-1.32
		L215.47,41.09z"/>
	<path class="st6" d="M217.99,44.7c0-0.77-0.02-1.39-0.05-1.94h1.3l0.07,0.9h0.02c0.43-0.66,1.12-1.03,2-1.03
		c1.34,0,2.46,1.15,2.46,2.97c0,2.11-1.33,3.13-2.66,3.13c-0.73,0-1.34-0.31-1.64-0.78h-0.02v3.02h-1.48V44.7z M219.46,46.15
		c0,0.14,0.01,0.28,0.05,0.41c0.14,0.6,0.67,1.03,1.29,1.03c0.94,0,1.49-0.78,1.49-1.93c0-1.03-0.5-1.87-1.45-1.87
		c-0.61,0-1.18,0.44-1.32,1.09c-0.04,0.12-0.06,0.25-0.06,0.37V46.15z"/>
	<path class="st6" d="M230.24,46.84c0,0.7,0.02,1.27,0.05,1.75h-1.3l-0.07-0.89h-0.02c-0.25,0.42-0.83,1.02-1.87,1.02
		c-1.07,0-2.04-0.64-2.04-2.54v-3.43h1.48v3.18c0,0.97,0.31,1.6,1.09,1.6c0.59,0,0.97-0.42,1.13-0.79c0.05-0.13,0.08-0.29,0.08-0.46
		v-3.53h1.48V46.84z"/>
	<path class="st6" d="M233.53,41.09v1.67h1.4v1.1h-1.4v2.58c0,0.71,0.19,1.08,0.76,1.08c0.25,0,0.44-0.04,0.58-0.07l0.02,1.13
		c-0.22,0.08-0.6,0.14-1.07,0.14c-0.54,0-1-0.18-1.27-0.48c-0.31-0.34-0.46-0.86-0.46-1.63v-2.75h-0.84v-1.1h0.84v-1.32
		L233.53,41.09z"/>
</g>
<g>
	<path class="st7" d="M205.73,394.65c0,2.15-1.51,3.11-3,3.11c-1.66,0-2.93-1.14-2.93-3.01c0-1.92,1.26-3.09,3.02-3.09
		C204.57,391.65,205.73,392.87,205.73,394.65z M201.33,394.71c0,1.13,0.55,1.98,1.45,1.98c0.84,0,1.43-0.83,1.43-2
		c0-0.91-0.41-1.96-1.42-1.96C201.75,392.73,201.33,393.74,201.33,394.71z"/>
	<path class="st7" d="M212.18,395.87c0,0.7,0.02,1.27,0.05,1.75h-1.3l-0.07-0.89h-0.02c-0.25,0.42-0.83,1.02-1.87,1.02
		c-1.07,0-2.04-0.64-2.04-2.54v-3.43h1.48v3.18c0,0.97,0.31,1.6,1.09,1.6c0.59,0,0.97-0.42,1.13-0.79c0.05-0.13,0.08-0.29,0.08-0.46
		v-3.53h1.48V395.87z"/>
	<path class="st7" d="M215.47,390.11v1.67h1.4v1.1h-1.4v2.58c0,0.71,0.19,1.08,0.76,1.08c0.25,0,0.44-0.04,0.58-0.07l0.02,1.13
		c-0.22,0.08-0.6,0.14-1.07,0.14c-0.54,0-1-0.18-1.27-0.48c-0.31-0.34-0.46-0.86-0.46-1.63v-2.75h-0.84v-1.1h0.84v-1.32
		L215.47,390.11z"/>
	<path class="st7" d="M217.99,393.72c0-0.77-0.02-1.39-0.05-1.94h1.3l0.07,0.9h0.02c0.43-0.66,1.12-1.03,2-1.03
		c1.34,0,2.46,1.15,2.46,2.97c0,2.11-1.33,3.13-2.66,3.13c-0.73,0-1.34-0.31-1.64-0.78h-0.02V400h-1.48V393.72z M219.46,395.17
		c0,0.14,0.01,0.28,0.05,0.41c0.14,0.6,0.67,1.03,1.29,1.03c0.94,0,1.49-0.78,1.49-1.93c0-1.03-0.5-1.87-1.45-1.87
		c-0.61,0-1.18,0.44-1.32,1.09c-0.04,0.12-0.06,0.25-0.06,0.37V395.17z"/>
	<path class="st7" d="M230.24,395.87c0,0.7,0.02,1.27,0.05,1.75h-1.3l-0.07-0.89h-0.02c-0.25,0.42-0.83,1.02-1.87,1.02
		c-1.07,0-2.04-0.64-2.04-2.54v-3.43h1.48v3.18c0,0.97,0.31,1.6,1.09,1.6c0.59,0,0.97-0.42,1.13-0.79c0.05-0.13,0.08-0.29,0.08-0.46
		v-3.53h1.48V395.87z"/>
	<path class="st7" d="M233.53,390.11v1.67h1.4v1.1h-1.4v2.58c0,0.71,0.19,1.08,0.76,1.08c0.25,0,0.44-0.04,0.58-0.07l0.02,1.13
		c-0.22,0.08-0.6,0.14-1.07,0.14c-0.54,0-1-0.18-1.27-0.48c-0.31-0.34-0.46-0.86-0.46-1.63v-2.75h-0.84v-1.1h0.84v-1.32
		L233.53,390.11z"/>
</g>
<g>
	<path class="st8" d="M183.56,179.48c0.01,0.36-0.25,0.65-0.67,0.65c-0.37,0-0.64-0.29-0.64-0.65c0-0.37,0.28-0.66,0.66-0.66
		C183.31,178.82,183.56,179.11,183.56,179.48z M182.39,186.92v-5.8h1.06v5.8H182.39z"/>
	<path class="st8" d="M180.46,197.09c0-0.6-0.01-1.09-0.05-1.57h0.94l0.06,0.96h0.02c0.29-0.55,0.96-1.09,1.92-1.09
		c0.8,0,2.05,0.48,2.05,2.47v3.47h-1.06v-3.35c0-0.94-0.35-1.71-1.34-1.71c-0.7,0-1.24,0.49-1.42,1.08
		c-0.05,0.13-0.07,0.31-0.07,0.49v3.49h-1.06V197.09z"/>
	<path class="st8" d="M180.38,211.81c0-0.74-0.02-1.34-0.05-1.9h0.95l0.05,1h0.02c0.43-0.71,1.12-1.13,2.06-1.13
		c1.4,0,2.46,1.19,2.46,2.95c0,2.09-1.27,3.12-2.64,3.12c-0.77,0-1.44-0.34-1.79-0.91h-0.02v3.15h-1.04V211.81z M181.42,213.36
		c0,0.16,0.02,0.3,0.05,0.43c0.19,0.73,0.83,1.24,1.58,1.24c1.12,0,1.76-0.91,1.76-2.24c0-1.16-0.61-2.16-1.73-2.16
		c-0.72,0-1.39,0.52-1.6,1.31c-0.04,0.13-0.07,0.29-0.07,0.43V213.36z"/>
	<path class="st8" d="M185.34,228.54c0,0.6,0.01,1.13,0.05,1.58h-0.94l-0.06-0.95h-0.02c-0.28,0.47-0.89,1.08-1.92,1.08
		c-0.91,0-2-0.5-2-2.54v-3.39h1.06v3.21c0,1.1,0.34,1.85,1.3,1.85c0.71,0,1.2-0.49,1.39-0.96c0.06-0.16,0.1-0.35,0.1-0.54v-3.56
		h1.06V228.54z"/>
	<path class="st8" d="M183.08,237.05v1.67h1.51v0.8h-1.51v3.13c0,0.72,0.2,1.13,0.79,1.13c0.28,0,0.48-0.04,0.61-0.07l0.05,0.79
		c-0.2,0.08-0.53,0.14-0.94,0.14c-0.49,0-0.89-0.16-1.14-0.44c-0.3-0.31-0.41-0.83-0.41-1.51v-3.17h-0.9v-0.8h0.9v-1.39
		L183.08,237.05z"/>
	<path class="st8" d="M181.27,257.84c0.31,0.2,0.86,0.42,1.39,0.42c0.77,0,1.13-0.38,1.13-0.86c0-0.5-0.3-0.78-1.08-1.07
		c-1.04-0.37-1.54-0.95-1.54-1.64c0-0.94,0.76-1.7,2-1.7c0.59,0,1.1,0.17,1.43,0.36l-0.26,0.77c-0.23-0.14-0.65-0.33-1.19-0.33
		c-0.62,0-0.97,0.36-0.97,0.79c0,0.48,0.35,0.7,1.1,0.98c1.01,0.38,1.52,0.89,1.52,1.75c0,1.02-0.79,1.74-2.17,1.74
		c-0.64,0-1.22-0.16-1.63-0.4L181.27,257.84z"/>
</g>
<g>
	<path class="st9" d="M18.93,396.9c0.21,0.14,0.58,0.28,0.93,0.28c0.51,0,0.75-0.26,0.75-0.58c0-0.34-0.2-0.52-0.72-0.71
		c-0.7-0.25-1.02-0.63-1.02-1.09c0-0.62,0.5-1.14,1.33-1.14c0.39,0,0.74,0.11,0.95,0.24l-0.18,0.51c-0.15-0.1-0.43-0.22-0.79-0.22
		c-0.42,0-0.65,0.24-0.65,0.53c0,0.32,0.23,0.46,0.74,0.66c0.67,0.26,1.02,0.59,1.02,1.17c0,0.68-0.53,1.16-1.45,1.16
		c-0.42,0-0.82-0.1-1.09-0.26L18.93,396.9z"/>
	<path class="st9" d="M25.7,395.66c0,1.43-0.99,2.05-1.93,2.05c-1.05,0-1.85-0.77-1.85-1.99c0-1.29,0.85-2.05,1.92-2.05
		C24.95,393.66,25.7,394.47,25.7,395.66z M22.63,395.7c0,0.85,0.49,1.49,1.18,1.49c0.67,0,1.18-0.63,1.18-1.5
		c0-0.66-0.33-1.49-1.16-1.49C22.99,394.19,22.63,394.96,22.63,395.7z"/>
	<path class="st9" d="M26.66,397.62v-3.33h-0.54v-0.54h0.54v-0.18c0-0.54,0.12-1.04,0.45-1.35c0.26-0.26,0.62-0.36,0.94-0.36
		c0.25,0,0.46,0.06,0.6,0.11l-0.1,0.54c-0.1-0.05-0.25-0.09-0.45-0.09c-0.6,0-0.75,0.53-0.75,1.12v0.21h0.94v0.54h-0.94v3.33H26.66z
		"/>
	<path class="st9" d="M29.86,392.64v1.11h1.01v0.54h-1.01v2.09c0,0.48,0.14,0.75,0.53,0.75c0.18,0,0.32-0.02,0.41-0.05l0.03,0.53
		c-0.14,0.06-0.35,0.1-0.62,0.1c-0.33,0-0.59-0.1-0.76-0.3c-0.2-0.21-0.27-0.55-0.27-1.01v-2.11h-0.6v-0.54h0.6v-0.93L29.86,392.64z
		"/>
	<path class="st9" d="M32.01,395.81c0.02,0.95,0.62,1.34,1.33,1.34c0.5,0,0.81-0.09,1.07-0.2l0.12,0.5
		c-0.25,0.11-0.67,0.24-1.29,0.24c-1.19,0-1.9-0.78-1.9-1.95s0.69-2.09,1.81-2.09c1.26,0,1.6,1.11,1.6,1.82
		c0,0.14-0.02,0.26-0.02,0.33H32.01z M34.07,395.31c0.01-0.45-0.18-1.14-0.98-1.14c-0.71,0-1.02,0.66-1.08,1.14H34.07z"/>
	<path class="st9" d="M35.62,394.96c0-0.46-0.01-0.85-0.03-1.21h0.62l0.02,0.76h0.03c0.18-0.52,0.6-0.85,1.07-0.85
		c0.08,0,0.14,0.01,0.2,0.02v0.66c-0.07-0.02-0.14-0.02-0.24-0.02c-0.5,0-0.85,0.38-0.94,0.9c-0.02,0.1-0.03,0.21-0.03,0.33v2.06
		h-0.7V394.96z"/>
</g>
<g>
	<path class="st9" d="M94.2,391.94h0.7v5.68h-0.7V391.94z"/>
	<path class="st9" d="M99.59,395.65c0,1.43-0.99,2.05-1.93,2.05c-1.05,0-1.85-0.77-1.85-1.99c0-1.29,0.85-2.05,1.92-2.05
		C98.83,393.66,99.59,394.47,99.59,395.65z M96.52,395.69c0,0.85,0.49,1.49,1.18,1.49c0.67,0,1.18-0.63,1.18-1.5
		c0-0.66-0.33-1.49-1.16-1.49C96.88,394.19,96.52,394.96,96.52,395.69z"/>
	<path class="st9" d="M103.71,396.57c0,0.4,0.01,0.75,0.03,1.06h-0.62l-0.04-0.63h-0.02c-0.18,0.31-0.59,0.72-1.28,0.72
		c-0.61,0-1.34-0.34-1.34-1.7v-2.26h0.7v2.14c0,0.74,0.22,1.23,0.86,1.23c0.47,0,0.8-0.33,0.93-0.64c0.04-0.1,0.06-0.23,0.06-0.36
		v-2.38h0.7V396.57z"/>
	<path class="st9" d="M108.23,391.94v4.68c0,0.34,0.01,0.74,0.03,1h-0.63l-0.03-0.67h-0.02c-0.22,0.43-0.69,0.76-1.32,0.76
		c-0.94,0-1.66-0.79-1.66-1.97c-0.01-1.29,0.79-2.08,1.74-2.08c0.59,0,0.99,0.28,1.17,0.59h0.02v-2.31H108.23z M107.52,395.33
		c0-0.09-0.01-0.21-0.03-0.3c-0.1-0.45-0.49-0.82-1.02-0.82c-0.73,0-1.16,0.64-1.16,1.5c0,0.78,0.38,1.43,1.14,1.43
		c0.47,0,0.9-0.31,1.03-0.84c0.02-0.1,0.03-0.19,0.03-0.3V395.33z"/>
	<path class="st9" d="M109.79,395.81c0.02,0.95,0.62,1.34,1.33,1.34c0.5,0,0.81-0.09,1.07-0.2l0.12,0.5
		c-0.25,0.11-0.67,0.24-1.29,0.24c-1.19,0-1.9-0.78-1.9-1.95c0-1.17,0.69-2.09,1.81-2.09c1.26,0,1.6,1.11,1.6,1.82
		c0,0.14-0.02,0.26-0.02,0.33H109.79z M111.85,395.31c0.01-0.45-0.18-1.14-0.98-1.14c-0.71,0-1.02,0.66-1.08,1.14H111.85z"/>
	<path class="st9" d="M113.4,394.96c0-0.46-0.01-0.85-0.03-1.21h0.62l0.02,0.76h0.03c0.18-0.52,0.6-0.85,1.07-0.85
		c0.08,0,0.14,0.01,0.2,0.02v0.66c-0.07-0.02-0.14-0.02-0.24-0.02c-0.5,0-0.85,0.38-0.94,0.9c-0.02,0.1-0.03,0.21-0.03,0.33v2.06
		h-0.7V394.96z"/>
</g>
<g>
	<path class="st8" d="M131,17.82h-2.3v-1.24h6.1v1.24h-2.33v6.85H131V17.82z"/>
	<path class="st8" d="M140.32,24.67l-0.88-1.61c-0.35-0.62-0.58-1.06-0.8-1.52h-0.04c-0.19,0.47-0.41,0.9-0.73,1.52l-0.8,1.61h-1.69
		l2.4-4.09l-2.3-3.99h1.69l0.88,1.67c0.26,0.5,0.46,0.9,0.67,1.36h0.02c0.22-0.5,0.38-0.86,0.64-1.36l0.86-1.67h1.69l-2.36,3.95
		l2.46,4.14H140.32z"/>
	<path class="st8" d="M143.02,20.57c0-0.67-0.01-1.24-0.05-1.74h1.3l0.07,0.88h0.04c0.25-0.46,0.89-1.01,1.86-1.01
		c1.02,0,2.07,0.66,2.07,2.51v3.47h-1.48v-3.3c0-0.84-0.31-1.48-1.12-1.48c-0.59,0-1,0.42-1.15,0.86c-0.05,0.13-0.06,0.31-0.06,0.48
		v3.43h-1.49V20.57z"/>
</g>
<g>
	<path class="st8" d="M130.15,421.73c0.02-0.4,0.05-1.04,0.05-1.64v-6.87h1.48v3.48h0.02c0.36-0.56,1-0.94,1.87-0.94
		c1.43,0,2.45,1.19,2.43,2.96c0,2.1-1.33,3.14-2.65,3.14c-0.76,0-1.43-0.29-1.85-1.01h-0.02l-0.07,0.88H130.15z M131.67,419.32
		c0,0.12,0.01,0.24,0.04,0.35c0.16,0.59,0.67,1.03,1.31,1.03c0.92,0,1.49-0.74,1.49-1.92c0-1.03-0.49-1.87-1.48-1.87
		c-0.6,0-1.14,0.43-1.31,1.08c-0.02,0.11-0.05,0.24-0.05,0.38V419.32z"/>
	<path class="st8" d="M137.22,417.83c0-0.77-0.02-1.39-0.05-1.94h1.3l0.07,0.9h0.02c0.43-0.66,1.12-1.03,2-1.03
		c1.34,0,2.46,1.15,2.46,2.97c0,2.11-1.33,3.13-2.66,3.13c-0.73,0-1.34-0.31-1.64-0.78h-0.02v3.02h-1.48V417.83z M138.69,419.29
		c0,0.14,0.01,0.28,0.05,0.41c0.14,0.6,0.67,1.03,1.29,1.03c0.94,0,1.49-0.78,1.49-1.93c0-1.03-0.5-1.87-1.45-1.87
		c-0.61,0-1.18,0.44-1.32,1.09c-0.04,0.12-0.06,0.25-0.06,0.37V419.29z"/>
	<path class="st8" d="M148.53,421.55c-0.31,0.14-0.92,0.3-1.66,0.3c-1.82,0-3.01-1.16-3.01-2.97c0-1.75,1.2-3.12,3.25-3.12
		c0.54,0,1.09,0.12,1.43,0.28l-0.26,1.1c-0.24-0.11-0.59-0.23-1.12-0.23c-1.13,0-1.8,0.83-1.79,1.9c0,1.2,0.78,1.88,1.79,1.88
		c0.52,0,0.88-0.11,1.16-0.23L148.53,421.55z"/>
</g>
<g>
</g>
<g>
</g>
<g>
</g>
<g>
</g>
<g>
</g>
<g>
</g>
</svg>
